<?xml version="1.0" standalone="no"?>
<!DOCTYPE svg PUBLIC "-//W3C//DTD SVG 20010904//EN"
 "http://www.w3.org/TR/2001/REC-SVG-20010904/DTD/svg10.dtd">
<svg version="1.0" xmlns="http://www.w3.org/2000/svg"
 width="200.000000pt" height="116.000000pt" viewBox="0 0 200.000000 116.000000"
 preserveAspectRatio="xMidYMid meet">
<metadata>
Created by potrace 1.16, written by Peter Selinger 2001-2019
</metadata>
<g transform="translate(0.000000,116.000000) scale(0.100000,-0.100000)"
fill="#000000" stroke="none">
<path d="M379 1094 c-108 -33 -218 -121 -273 -219 -100 -179 -67 -404 80 -549
178 -175 450 -178 636 -7 98 90 158 244 144 371 -22 193 -137 337 -321 400
-69 24 -196 26 -266 4z m279 -56 c222 -82 327 -356 219 -573 -73 -147 -223
-232 -393 -223 -356 19 -520 451 -266 701 118 117 284 152 440 95z"/>
<path d="M430 670 l0 -190 120 0 c113 0 120 1 120 20 0 19 -7 20 -95 20 l-95
0 0 170 0 170 -25 0 -25 0 0 -190z"/>
<path d="M1355 1091 c-86 -31 -129 -57 -187 -116 -180 -181 -179 -465 1 -646
289 -289 782 -84 781 325 0 203 -137 383 -334 440 -72 21 -197 20 -261 -3z
m255 -43 c152 -46 268 -182 290 -338 25 -179 -64 -346 -226 -427 -210 -103
-458 -16 -557 196 -40 85 -49 209 -22 292 73 221 300 343 515 277z"/>
<path d="M1410 838 c-63 -44 -75 -70 -75 -168 0 -98 12 -124 75 -167 64 -44
193 -25 240 35 24 30 25 38 4 46 -11 4 -31 -7 -56 -30 -38 -34 -44 -36 -94
-32 -83 7 -124 58 -124 153 0 89 51 145 131 145 40 0 55 -5 84 -31 28 -25 40
-30 56 -23 20 9 20 9 -1 37 -33 42 -72 57 -143 57 -50 0 -71 -5 -97 -22z"/>
<path d="M941 350 c-94 -141 -100 -204 -26 -269 96 -84 245 -22 245 102 0 55
-107 241 -147 254 -6 2 -38 -37 -72 -87z"/>
</g>
</svg>
